name analog
datacolumns 19
datarows 47
range 0.349 0.372
endheader
time	ground_force_vx	ground_force_vy	ground_force_vz	ground_force_px	ground_force_py	ground_force_pz	l_ground_force_vx	l_ground_force_vy	l_ground_force_vz	l_ground_force_px	l_ground_force_py	l_ground_force_pz	ground_torque_x	ground_torque_y	ground_torque_z	l_ground_torque_x	l_ground_torque_y	l_ground_torque_z
0.349	-0.0	-0.0	-0.0	2.124124050140381	28.985435485839844	-403.8590087890625	-0.1297311782836914	-23.32713508605957	-369.52349853515625	-0.0	-0.0	-0.0	-0.0	-0.0	-0.0	103851.4296875	18551.828125	-5982.20654296875
0.3495	-0.0	-0.0	-0.0	2.087684631347656	28.82493019104004	-400.5769958496094	-0.6209754943847656	-23.54134559631348	-370.3697509765625	-0.0	-0.0	-0.0	-0.0	-0.0	-0.0	103744.5390625	18628.1171875	-5968.89306640625
0.35	-0.0	-0.0	-0.0	2.078493595123291	28.735492706298828	-400.1528930664063	0.0179784074425697	-23.415306091308597	-368.6245727539063	-0.0	-0.0	-0.0	-0.0	-0.0	-0.0	103260.9453125	18367.330078125	-6044.62890625
0.3505	-0.0	-0.0	-0.0	2.543100118637085	28.441390991210938	-398.9539489746094	-0.7683310508728027	-23.660234451293945	-366.18701171875	-0.0	-0.0	-0.0	-0.0	-0.0	-0.0	102956.171875	18477.98046875	-5998.69189453125
0.351	-0.0	-0.0	-0.0	2.3194732666015625	28.610858917236328	-396.2678833007813	-0.7693708539009094	-23.20960807800293	-365.7542724609375	-0.0	-0.0	-0.0	-0.0	-0.0	-0.0	102410.3203125	18497.48046875	-6229.23779296875
0.3515	-0.0	-0.0	-0.0	2.587104797363281	28.5762939453125	-395.03717041015625	-1.3207906484603882	-23.50339698791504	-365.289794921875	-0.0	-0.0	-0.0	-0.0	-0.0	-0.0	101964.2734375	18505.572265625	-6348.412109375
0.352	-0.0	-0.0	-0.0	2.7998239994049072	27.96981239318848	-392.9874572753906	-1.202224612236023	-23.905914306640625	-362.3808288574219	-0.0	-0.0	-0.0	-0.0	-0.0	-0.0	101786.3671875	18673.15625	-6312.08349609375
0.3525	-0.0	-0.0	-0.0	2.748531579971313	27.897815704345703	-388.3129577636719	-1.8823661804199217	-23.40524673461914	-362.8498840332031	-0.0	-0.0	-0.0	-0.0	-0.0	-0.0	101076.2890625	18648.615234375	-6483.794921875
0.353	-0.0	-0.0	-0.0	2.603933095932007	28.148393630981445	-387.9782104492188	-2.426077365875244	-24.004308700561523	-360.0210266113281	-0.0	-0.0	-0.0	-0.0	-0.0	-0.0	100550.28125	18385.25	-6721.5634765625
0.3535	-0.0	-0.0	-0.0	2.5203888416290283	27.702890396118164	-384.8340759277344	-2.740471124649048	-24.436542510986328	-358.3048400878906	-0.0	-0.0	-0.0	-0.0	-0.0	-0.0	100214.34375	18600.21875	-7035.33544921875
0.354	-0.0	-0.0	-0.0	2.0601043701171875	27.970436096191406	-382.363037109375	-3.6086816787719727	-24.181251525878903	-355.7481689453125	-0.0	-0.0	-0.0	-0.0	-0.0	-0.0	99448.734375	18778.126953125	-7270.0537109375
0.3545	-0.0	-0.0	-0.0	1.9544516801834104	27.65494155883789	-376.3926696777344	-4.029601573944092	-24.474470138549805	-354.388916015625	-0.0	-0.0	-0.0	-0.0	-0.0	-0.0	99025.6953125	18748.501953125	-7461.0458984375
0.355	-0.0	-0.0	-0.0	0.9813156127929688	27.638521194458008	-375.7192687988281	-4.491516590118408	-24.48368453979492	-351.2465209960937	-0.0	-0.0	-0.0	-0.0	-0.0	-0.0	98377.8515625	18896.873046875	-7707.998046875
0.3555	-0.0	-0.0	-0.0	0.6244735717773438	27.622404098510746	-369.9701232910156	-5.448370933532715	-24.678600311279297	-350.1840209960937	-0.0	-0.0	-0.0	-0.0	-0.0	-0.0	97390.7890625	18733.6171875	-8138.09033203125
0.356	-0.0	-0.0	-0.0	-0.1863745003938675	27.622478485107425	-366.8595275878906	-6.4391703605651855	-24.8975772857666	-347.12896728515625	-0.0	-0.0	-0.0	-0.0	-0.0	-0.0	96740.671875	18660.140625	-8444.69921875
0.3565	-0.0	-0.0	-0.0	-0.4854333102703094	27.77720832824707	-363.6817932128906	-7.274284362792969	-24.98597526550293	-343.8427124023437	-0.0	-0.0	-0.0	-0.0	-0.0	-0.0	95852.9609375	18556.775390625	-8673.419921875
0.357	-0.0	-0.0	-0.0	-2.036255121231079	27.68062400817871	-358.4776611328125	-7.797529220581055	-25.12826156616211	-341.3992614746094	-0.0	-0.0	-0.0	-0.0	-0.0	-0.0	95290.5	18585.177734375	-9047.3955078125
0.3575	-0.0	-0.0	-0.0	-2.451581716537476	27.289325714111328	-355.9136962890625	-8.392488479614258	-25.58656883239746	-337.7000427246094	-0.0	-0.0	-0.0	-0.0	-0.0	-0.0	94257.1015625	18893.822265625	-9347.6669921875
0.358	-0.0	-0.0	-0.0	-2.4621777534484863	27.273902893066406	-351.06085205078125	-9.332371711730955	-25.31300163269043	-335.220458984375	-0.0	-0.0	-0.0	-0.0	-0.0	-0.0	93322.7421875	18608.873046875	-9369.1044921875
0.3585	-0.0	-0.0	-0.0	-3.574490785598755	27.03671646118164	-349.2351379394531	-9.65190315246582	-25.18042755126953	-333.021484375	-0.0	-0.0	-0.0	-0.0	-0.0	-0.0	92449.203125	18730.427734375	-9568.0185546875
0.359	-0.0	-0.0	-0.0	-3.7543246746063232	27.927133560180664	-345.6446838378906	-10.21916389465332	-25.26000213623047	-328.5859680175781	-0.0	-0.0	-0.0	-0.0	-0.0	-0.0	91585.9140625	18505.380859375	-9666.150390625
0.3595	-0.0	-0.0	-0.0	-3.932668924331665	26.94698143005371	-341.878173828125	-10.556583404541016	-25.00363540649414	-327.7514343261719	-0.0	-0.0	-0.0	-0.0	-0.0	-0.0	90930.4765625	18690.6875	-9716.888671875
0.36	-0.0	-0.0	-0.0	-3.612410068511963	27.117616653442383	-338.6415405273437	-10.670976638793944	-25.020606994628903	-324.74468994140625	-0.0	-0.0	-0.0	-0.0	-0.0	-0.0	90064.7265625	18193.78125	-9722.6748046875
0.3605	-0.0	-0.0	-0.0	-4.320534706115723	27.423171997070312	-334.9007263183594	-10.645294189453123	-24.2170352935791	-321.63543701171875	-0.0	-0.0	-0.0	-0.0	-0.0	-0.0	89430.3671875	18515.375	-9689.873046875
0.361	-0.0	-0.0	-0.0	-3.5007240772247314	26.73912048339844	-334.079833984375	-10.282049179077148	-24.41024398803711	-319.2568359375	-0.0	-0.0	-0.0	-0.0	-0.0	-0.0	89030.8125	18338.30078125	-9708.0361328125
0.3615	-0.0	-0.0	-0.0	-2.725996971130371	26.054441452026367	-331.9329528808594	-9.960591316223145	-24.69690704345703	-318.3607177734375	-0.0	-0.0	-0.0	-0.0	-0.0	-0.0	88410.8125	18594.193359375	-9395.5478515625
0.362	-0.0	-0.0	-0.0	-2.1550934314727783	26.436656951904297	-330.0368347167969	-10.298702239990234	-24.38500022888184	-315.6005859375	-0.0	-0.0	-0.0	-0.0	-0.0	-0.0	87576.3046875	18422.07421875	-9454.9609375
0.3625	-0.0	-0.0	-0.0	-1.8327728509902956	26.039939880371094	-329.191162109375	-9.72665786743164	-23.614421844482425	-314.3329162597656	-0.0	-0.0	-0.0	-0.0	-0.0	-0.0	87423.7265625	18431.90234375	-9332.8876953125
0.363	-0.0	-0.0	-0.0	-1.3999309539794922	25.83411026000977	-328.1856384277344	-9.84689712524414	-23.40524673461914	-315.15655517578125	-0.0	-0.0	-0.0	-0.0	-0.0	-0.0	87196.5703125	18499.703125	-9289.6767578125
0.3635	-0.0	-0.0	-0.0	-0.9338376522064208	25.98541831970215	-327.3978271484375	-9.750171661376951	-23.196683883666992	-313.3782958984375	-0.0	-0.0	-0.0	-0.0	-0.0	-0.0	86949.6484375	18054.98828125	-9141.310546875
0.364	-0.0	-0.0	-0.0	-0.5352630615234375	25.35525131225586	-330.49676513671875	-9.395402908325195	-22.457426071166992	-311.8236694335937	-0.0	-0.0	-0.0	-0.0	-0.0	-0.0	87015.8828125	18492.58203125	-8927.529296875
0.3645	-0.0	-0.0	-0.0	0.29415363073349	24.874006271362305	-331.23028564453125	-9.145074844360352	-22.537687301635746	-312.52166748046875	-0.0	-0.0	-0.0	-0.0	-0.0	-0.0	87243.984375	18537.841796875	-8743.974609375
0.365	-0.0	-0.0	-0.0	0.9878627061843872	25.13477325439453	-333.0746154785156	-8.547358512878418	-22.01533889770508	-312.2027893066406	-0.0	-0.0	-0.0	-0.0	-0.0	-0.0	87135.4453125	18570.8125	-8581.9765625
0.3655	-0.0	-0.0	-0.0	1.854003667831421	25.350431442260746	-336.3554077148437	-7.806549072265625	-22.130380630493164	-312.8095092773437	-0.0	-0.0	-0.0	-0.0	-0.0	-0.0	87213.9453125	18379.2421875	-8173.93896484375
0.366	-0.0	-0.0	-0.0	2.701897621154785	25.35743522644043	-341.5250244140625	-6.379546642303467	-21.689151763916016	-314.1763916015625	-0.0	-0.0	-0.0	-0.0	-0.0	-0.0	87701.5078125	18604.859375	-7849.00732421875
0.3665	-0.0	-0.0	-0.0	4.970539093017578	25.395856857299805	-347.05096435546875	-5.2924580574035645	-20.924724578857425	-315.72216796875	-0.0	-0.0	-0.0	-0.0	-0.0	-0.0	88326.1875	18771.484375	-7392.90087890625
0.367	-0.0	-0.0	-0.0	6.607815742492676	25.21143913269043	-351.7425231933594	-3.023639917373657	-20.218225479125977	-320.4329528808594	-0.0	-0.0	-0.0	-0.0	-0.0	-0.0	89231.3984375	18718.52734375	-6847.18408203125
0.3675	-0.0	-0.0	-0.0	8.595014572143555	24.96882438659668	-358.7820129394531	-0.8871078491210938	-19.1584415435791	-324.129150390625	-0.0	-0.0	-0.0	-0.0	-0.0	-0.0	90633.1328125	19147.685546875	-6338.7607421875
0.368	-0.0	-0.0	-0.0	11.390512466430664	24.6709041595459	-364.2488403320313	1.4340004920959473	-18.459232330322266	-331.08209228515625	-0.0	-0.0	-0.0	-0.0	-0.0	-0.0	92645.6875	19525.1484375	-5454.51513671875
0.3685	-0.0	-0.0	-0.0	14.3869047164917	24.302610397338867	-372.017333984375	4.140445709228516	-17.59043312072754	-340.45135498046875	-0.0	-0.0	-0.0	-0.0	-0.0	-0.0	95035.96875	19997.828125	-4713.263671875
0.369	-0.0	-0.0	-0.0	17.604251861572266	24.40387725830078	-381.1047668457031	6.519046783447266	-17.59749984741211	-348.6798095703125	-0.0	-0.0	-0.0	-0.0	-0.0	-0.0	97814.8515625	20427.267578125	-4058.99609375
0.3695	-0.0	-0.0	-0.0	21.243865966796875	24.421730041503903	-389.1809997558594	9.381985664367676	-17.081525802612305	-358.634765625	-0.0	-0.0	-0.0	-0.0	-0.0	-0.0	100642.625	21149.34375	-3406.650146484375
0.37	-0.0	-0.0	-0.0	24.28267478942871	24.838382720947266	-400.6439514160156	11.940741539001465	-16.388595581054688	-371.1759033203125	-0.0	-0.0	-0.0	-0.0	-0.0	-0.0	103578.53125	21486.95703125	-2720.0517578125
0.3705	-0.0	-0.0	-0.0	28.319847106933597	25.051368713378903	-410.5312194824219	13.402297019958496	-16.530031204223633	-379.2060852050781	-0.0	-0.0	-0.0	-0.0	-0.0	-0.0	105902.4921875	22214.037109375	-2232.821533203125
0.371	-0.0	-0.0	-0.0	31.53082847595215	25.30175399780273	-424.19146728515625	15.981709480285645	-16.325803756713867	-388.0700378417969	-0.0	-0.0	-0.0	-0.0	-0.0	-0.0	108532.875	23199.568359375	-1437.110595703125
0.3715	-0.0	-0.0	-0.0	34.29024887084961	25.569297790527344	-437.5238342285156	18.055944442749023	-15.823137283325195	-399.3758544921875	-0.0	-0.0	-0.0	-0.0	-0.0	-0.0	111189.1640625	24158.3828125	-883.3753662109375
0.372	-0.0	-0.0	-0.0	36.74923706054688	25.491294860839844	-449.3101196289063	19.80270767211914	-16.299283981323242	-408.1317443847656	-0.0	-0.0	-0.0	-0.0	-0.0	-0.0	113821.8125	24879.185546875	-448.9182434082031
